<svg xmlns="http://www.w3.org/2000/svg" viewBox="0 0 128 24" width="88" height="16" aria-labelledby=":lithium-rg:">
	<title id=":lithium-rg:">4.5 of 5 bubbles</title>
	<path d="M 12 0C5.388 0 0 5.388 0 12s5.388 12 12 12 12-5.38 12-12c0-6.612-5.38-12-12-12z" transform="" fill="#00aa6c"></path>
	<path d="M 12 0C5.388 0 0 5.388 0 12s5.388 12 12 12 12-5.38 12-12c0-6.612-5.38-12-12-12z" transform="translate(26 0)" fill="#00aa6c"></path>
	<path d="M 12 0C5.388 0 0 5.388 0 12s5.388 12 12 12 12-5.38 12-12c0-6.612-5.38-12-12-12z" transform="translate(52 0)" fill="#00aa6c"></path>
	<path d="M 12 0C5.388 0 0 5.388 0 12s5.388 12 12 12 12-5.38 12-12c0-6.612-5.38-12-12-12z" transform="translate(78 0)" fill="#00aa6c"></path>
	<path d="M 12 0C5.389 0 0 5.389 0 12c0 6.62 5.389 12 12 12 6.62 0 12-5.379 12-12S18.621 0 12 0zm0 2a9.984 9.984 0 0110 10 9.976 9.976 0 01-10 10z" transform="translate(104 0)" fill="#00aa6c"></path>
</svg>
